<?xml version="1.0" encoding="UTF-8" standalone="no"?>
<!-- Created with Inkscape (http://www.inkscape.org/) -->

<svg
   xmlns:dc="http://purl.org/dc/elements/1.1/"
   xmlns:cc="http://creativecommons.org/ns#"
   xmlns:rdf="http://www.w3.org/1999/02/22-rdf-syntax-ns#"
   xmlns:svg="http://www.w3.org/2000/svg"
   xmlns="http://www.w3.org/2000/svg"
   xmlns:sodipodi="http://sodipodi.sourceforge.net/DTD/sodipodi-0.dtd"
   xmlns:inkscape="http://www.inkscape.org/namespaces/inkscape"
   width="283.96506mm"
   height="287.99683mm"
   viewBox="0 0 1006.1754 1020.4612"
   id="svg2"
   version="1.1"
   inkscape:version="0.92.2 5c3e80d, 2017-08-06"
   sodipodi:docname="key-outline.svg">
  <defs
     id="defs4" />
  <sodipodi:namedview
     id="base"
     pagecolor="#ffffff"
     bordercolor="#666666"
     borderopacity="1.0"
     inkscape:pageopacity="0.0"
     inkscape:pageshadow="2"
     inkscape:zoom="0.71"
     inkscape:cx="599.94028"
     inkscape:cy="631.43547"
     inkscape:document-units="px"
     inkscape:current-layer="g4193"
     showgrid="true"
     inkscape:window-width="1440"
     inkscape:window-height="856"
     inkscape:window-x="0"
     inkscape:window-y="0"
     inkscape:window-maximized="1"
     fit-margin-top="0"
     fit-margin-left="0"
     fit-margin-right="0"
     fit-margin-bottom="0"
     inkscape:pagecheckerboard="false">
    <inkscape:grid
       type="xygrid"
       id="grid4155"
       originx="138.91457"
       originy="-81.310427"
       enabled="false" />
  </sodipodi:namedview>
  <metadata
     id="metadata7">
    <rdf:RDF>
      <cc:Work
         rdf:about="">
        <dc:format>image/svg+xml</dc:format>
        <dc:type
           rdf:resource="http://purl.org/dc/dcmitype/StillImage" />
        <dc:title></dc:title>
      </cc:Work>
    </rdf:RDF>
  </metadata>
  <g
     inkscape:label="Layer 1"
     inkscape:groupmode="layer"
     id="layer1"
     transform="translate(138.91457,49.409445)">
    <g
       id="g4193">
      <rect
         y="-969.12537"
         x="-136.98816"
         height="1016.6084"
         width="1002.3226"
         id="rect3336"
         style="fill:none;fill-opacity:1;stroke:#000000;stroke-width:3.8528254;stroke-linecap:round;stroke-miterlimit:4;stroke-dasharray:none;stroke-opacity:1"
         transform="scale(1,-1)" />
      <rect
         y="0.93363953"
         x="-96.85714"
         height="194.8819"
         width="194.8819"
         id="rect4138"
         style="fill:none;fill-opacity:1;stroke:#000000;stroke-width:3.54330707;stroke-linecap:round;stroke-miterlimit:4;stroke-dasharray:none;stroke-opacity:1" />
      <rect
         style="fill:none;fill-opacity:1;stroke:#000000;stroke-width:3.54330707;stroke-linecap:round;stroke-miterlimit:4;stroke-dasharray:none;stroke-opacity:1"
         id="rect4160"
         width="194.8819"
         height="194.8819"
         x="143.14285"
         y="0.93363953" />
      <rect
         y="0.93363953"
         x="385.14285"
         height="194.8819"
         width="194.8819"
         id="rect4162"
         style="fill:none;fill-opacity:1;stroke:#000000;stroke-width:3.54330707;stroke-linecap:round;stroke-miterlimit:4;stroke-dasharray:none;stroke-opacity:1" />
      <rect
         style="fill:none;fill-opacity:1;stroke:#000000;stroke-width:3.54299998;stroke-linecap:round;stroke-miterlimit:4;stroke-dasharray:none;stroke-opacity:1"
         id="rect4164"
         width="194.8819"
         height="194.8819"
         x="625.14282"
         y="0.93363953" />
      <rect
         style="fill:none;fill-opacity:1;stroke:#000000;stroke-width:3.54330707;stroke-linecap:round;stroke-miterlimit:4;stroke-dasharray:none;stroke-opacity:1"
         id="rect4209"
         width="194.8819"
         height="194.8819"
         x="-96.85714"
         y="242.93364" />
      <rect
         y="242.93364"
         x="143.14285"
         height="194.8819"
         width="194.8819"
         id="rect4211"
         style="fill:none;fill-opacity:1;stroke:#000000;stroke-width:3.54330707;stroke-linecap:round;stroke-miterlimit:4;stroke-dasharray:none;stroke-opacity:1" />
      <rect
         style="fill:none;fill-opacity:1;stroke:#000000;stroke-width:3.54330707;stroke-linecap:round;stroke-miterlimit:4;stroke-dasharray:none;stroke-opacity:1"
         id="rect4213"
         width="194.8819"
         height="194.8819"
         x="385.14285"
         y="242.93364" />
      <rect
         y="242.93364"
         x="625.14282"
         height="194.8819"
         width="194.8819"
         id="rect4215"
         style="fill:none;fill-opacity:1;stroke:#000000;stroke-width:3.54330707;stroke-linecap:round;stroke-miterlimit:4;stroke-dasharray:none;stroke-opacity:1" />
      <rect
         y="484.93365"
         x="-96.85714"
         height="194.8819"
         width="194.8819"
         id="rect4217"
         style="fill:none;fill-opacity:1;stroke:#000000;stroke-width:3.54330707;stroke-linecap:round;stroke-miterlimit:4;stroke-dasharray:none;stroke-opacity:1" />
      <rect
         style="fill:none;fill-opacity:1;stroke:#000000;stroke-width:3.54330707;stroke-linecap:round;stroke-miterlimit:4;stroke-dasharray:none;stroke-opacity:1"
         id="rect4219"
         width="194.8819"
         height="194.8819"
         x="143.14285"
         y="484.93365" />
      <rect
         y="484.93365"
         x="385.14285"
         height="194.8819"
         width="194.8819"
         id="rect4221"
         style="fill:none;fill-opacity:1;stroke:#000000;stroke-width:3.54330707;stroke-linecap:round;stroke-miterlimit:4;stroke-dasharray:none;stroke-opacity:1" />
      <rect
         style="fill:none;fill-opacity:1;stroke:#000000;stroke-width:3.54330707;stroke-linecap:round;stroke-miterlimit:4;stroke-dasharray:none;stroke-opacity:1"
         id="rect4223"
         width="194.8819"
         height="194.8819"
         x="625.14282"
         y="484.93365" />
      <rect
         style="fill:none;fill-opacity:1;stroke:#000000;stroke-width:3.54330707;stroke-linecap:round;stroke-miterlimit:4;stroke-dasharray:none;stroke-opacity:1"
         id="rect4225"
         width="194.8819"
         height="194.8819"
         x="-96.85714"
         y="726.93365" />
      <rect
         y="726.93365"
         x="143.14285"
         height="194.8819"
         width="194.8819"
         id="rect4227"
         style="fill:none;fill-opacity:1;stroke:#000000;stroke-width:3.54330707;stroke-linecap:round;stroke-miterlimit:4;stroke-dasharray:none;stroke-opacity:1" />
      <rect
         style="fill:none;fill-opacity:1;stroke:#000000;stroke-width:3.54330707;stroke-linecap:round;stroke-miterlimit:4;stroke-dasharray:none;stroke-opacity:1"
         id="rect4229"
         width="194.8819"
         height="194.8819"
         x="385.14285"
         y="726.93365" />
      <rect
         y="726.93365"
         x="625.14282"
         height="194.8819"
         width="194.8819"
         id="rect4231"
         style="fill:none;fill-opacity:1;stroke:#000000;stroke-width:3.54330707;stroke-linecap:round;stroke-miterlimit:4;stroke-dasharray:none;stroke-opacity:1" />
      <path
         style="fill:none;fill-opacity:1;stroke:#000000;stroke-width:1.33927107;stroke-miterlimit:4;stroke-dasharray:none;stroke-opacity:1"
         id="path839"
         sodipodi:type="arc"
         sodipodi:cx="-80.760071"
         sodipodi:cy="-20.13294"
         sodipodi:rx="13.39266"
         sodipodi:ry="13.392761"
         sodipodi:start="0"
         sodipodi:end="6.1423547"
         sodipodi:open="true"
         d="m -67.367411,-20.13294 a 13.39266,13.392761 0 0 1 -12.921233,13.3844611 13.39266,13.392761 0 0 1 -13.830898,-12.4421851 13.39266,13.392761 0 0 1 11.947528,-14.260401 13.39266,13.392761 0 0 1 14.672013,11.438242" />
      <path
         d="M 168.88259,-20.13294 A 13.39266,13.392761 0 0 1 155.96136,-6.7484789 13.39266,13.392761 0 0 1 142.13046,-19.190664 13.39266,13.392761 0 0 1 154.07799,-33.451065 13.39266,13.392761 0 0 1 168.75,-22.012823"
         sodipodi:open="true"
         sodipodi:end="6.1423547"
         sodipodi:start="0"
         sodipodi:ry="13.392761"
         sodipodi:rx="13.39266"
         sodipodi:cy="-20.13294"
         sodipodi:cx="155.48993"
         sodipodi:type="arc"
         id="path843"
         style="fill:none;fill-opacity:1;stroke:#000000;stroke-width:1.33927107;stroke-miterlimit:4;stroke-dasharray:none;stroke-opacity:1" />
      <path
         style="fill:none;fill-opacity:1;stroke:#000000;stroke-width:1.33927107;stroke-miterlimit:4;stroke-dasharray:none;stroke-opacity:1"
         id="path845"
         sodipodi:type="arc"
         sodipodi:cx="399.23993"
         sodipodi:cy="-20.13294"
         sodipodi:rx="13.39266"
         sodipodi:ry="13.392761"
         sodipodi:start="0"
         sodipodi:end="6.1423547"
         sodipodi:open="true"
         d="M 412.63259,-20.13294 A 13.39266,13.392761 0 0 1 399.71136,-6.7484789 13.39266,13.392761 0 0 1 385.88046,-19.190664 13.39266,13.392761 0 0 1 397.82799,-33.451065 13.39266,13.392761 0 0 1 412.5,-22.012823" />
      <path
         d="m 650.75759,-20.13294 a 13.39266,13.392761 0 0 1 -12.92123,13.3844611 13.39266,13.392761 0 0 1 -13.8309,-12.4421851 13.39266,13.392761 0 0 1 11.94753,-14.260401 13.39266,13.392761 0 0 1 14.67201,11.438242"
         sodipodi:open="true"
         sodipodi:end="6.1423547"
         sodipodi:start="0"
         sodipodi:ry="13.392761"
         sodipodi:rx="13.39266"
         sodipodi:cy="-20.13294"
         sodipodi:cx="637.36493"
         sodipodi:type="arc"
         id="path847"
         style="fill:none;fill-opacity:1;stroke:#000000;stroke-width:1.33927107;stroke-miterlimit:4;stroke-dasharray:none;stroke-opacity:1" />
      <path
         d="m -67.367411,221.74205 a 13.39266,13.392761 0 0 1 -12.921233,13.38446 13.39266,13.392761 0 0 1 -13.830898,-12.44218 13.39266,13.392761 0 0 1 11.947528,-14.2604 13.39266,13.392761 0 0 1 14.672013,11.43824"
         sodipodi:open="true"
         sodipodi:end="6.1423547"
         sodipodi:start="0"
         sodipodi:ry="13.392761"
         sodipodi:rx="13.39266"
         sodipodi:cy="221.74205"
         sodipodi:cx="-80.760071"
         sodipodi:type="arc"
         id="path849"
         style="fill:none;fill-opacity:1;stroke:#000000;stroke-width:1.33927107;stroke-miterlimit:4;stroke-dasharray:none;stroke-opacity:1" />
      <path
         style="fill:none;fill-opacity:1;stroke:#000000;stroke-width:1.33927107;stroke-miterlimit:4;stroke-dasharray:none;stroke-opacity:1"
         id="path851"
         sodipodi:type="arc"
         sodipodi:cx="155.48993"
         sodipodi:cy="221.74205"
         sodipodi:rx="13.39266"
         sodipodi:ry="13.392761"
         sodipodi:start="0"
         sodipodi:end="6.1423547"
         sodipodi:open="true"
         d="m 168.88259,221.74205 a 13.39266,13.392761 0 0 1 -12.92123,13.38446 13.39266,13.392761 0 0 1 -13.8309,-12.44218 13.39266,13.392761 0 0 1 11.94753,-14.2604 13.39266,13.392761 0 0 1 14.67201,11.43824" />
      <path
         d="m 412.63259,221.74205 a 13.39266,13.392761 0 0 1 -12.92123,13.38446 13.39266,13.392761 0 0 1 -13.8309,-12.44218 13.39266,13.392761 0 0 1 11.94753,-14.2604 13.39266,13.392761 0 0 1 14.67201,11.43824"
         sodipodi:open="true"
         sodipodi:end="6.1423547"
         sodipodi:start="0"
         sodipodi:ry="13.392761"
         sodipodi:rx="13.39266"
         sodipodi:cy="221.74205"
         sodipodi:cx="399.23993"
         sodipodi:type="arc"
         id="path853"
         style="fill:none;fill-opacity:1;stroke:#000000;stroke-width:1.33927107;stroke-miterlimit:4;stroke-dasharray:none;stroke-opacity:1" />
      <path
         style="fill:none;fill-opacity:1;stroke:#000000;stroke-width:1.33927107;stroke-miterlimit:4;stroke-dasharray:none;stroke-opacity:1"
         id="path855"
         sodipodi:type="arc"
         sodipodi:cx="637.36493"
         sodipodi:cy="221.74205"
         sodipodi:rx="13.39266"
         sodipodi:ry="13.392761"
         sodipodi:start="0"
         sodipodi:end="6.1423547"
         sodipodi:open="true"
         d="m 650.75759,221.74205 a 13.39266,13.392761 0 0 1 -12.92123,13.38446 13.39266,13.392761 0 0 1 -13.8309,-12.44218 13.39266,13.392761 0 0 1 11.94753,-14.2604 13.39266,13.392761 0 0 1 14.67201,11.43824" />
      <path
         style="fill:none;fill-opacity:1;stroke:#000000;stroke-width:1.33927107;stroke-miterlimit:4;stroke-dasharray:none;stroke-opacity:1"
         id="path857"
         sodipodi:type="arc"
         sodipodi:cx="-80.760071"
         sodipodi:cy="463.61703"
         sodipodi:rx="13.39266"
         sodipodi:ry="13.392761"
         sodipodi:start="0"
         sodipodi:end="6.1423547"
         sodipodi:open="true"
         d="m -67.367411,463.61703 a 13.39266,13.392761 0 0 1 -12.921233,13.38447 13.39266,13.392761 0 0 1 -13.830898,-12.44219 13.39266,13.392761 0 0 1 11.947528,-14.2604 13.39266,13.392761 0 0 1 14.672013,11.43824" />
      <path
         d="m 168.88259,463.61703 a 13.39266,13.392761 0 0 1 -12.92123,13.38447 13.39266,13.392761 0 0 1 -13.8309,-12.44219 13.39266,13.392761 0 0 1 11.94753,-14.2604 13.39266,13.392761 0 0 1 14.67201,11.43824"
         sodipodi:open="true"
         sodipodi:end="6.1423547"
         sodipodi:start="0"
         sodipodi:ry="13.392761"
         sodipodi:rx="13.39266"
         sodipodi:cy="463.61703"
         sodipodi:cx="155.48993"
         sodipodi:type="arc"
         id="path859"
         style="fill:none;fill-opacity:1;stroke:#000000;stroke-width:1.33927107;stroke-miterlimit:4;stroke-dasharray:none;stroke-opacity:1" />
      <path
         style="fill:none;fill-opacity:1;stroke:#000000;stroke-width:1.33927107;stroke-miterlimit:4;stroke-dasharray:none;stroke-opacity:1"
         id="path861"
         sodipodi:type="arc"
         sodipodi:cx="399.23993"
         sodipodi:cy="463.61703"
         sodipodi:rx="13.39266"
         sodipodi:ry="13.392761"
         sodipodi:start="0"
         sodipodi:end="6.1423547"
         sodipodi:open="true"
         d="m 412.63259,463.61703 a 13.39266,13.392761 0 0 1 -12.92123,13.38447 13.39266,13.392761 0 0 1 -13.8309,-12.44219 13.39266,13.392761 0 0 1 11.94753,-14.2604 13.39266,13.392761 0 0 1 14.67201,11.43824" />
      <path
         d="m 650.75759,463.61703 a 13.39266,13.392761 0 0 1 -12.92123,13.38447 13.39266,13.392761 0 0 1 -13.8309,-12.44219 13.39266,13.392761 0 0 1 11.94753,-14.2604 13.39266,13.392761 0 0 1 14.67201,11.43824"
         sodipodi:open="true"
         sodipodi:end="6.1423547"
         sodipodi:start="0"
         sodipodi:ry="13.392761"
         sodipodi:rx="13.39266"
         sodipodi:cy="463.61703"
         sodipodi:cx="637.36493"
         sodipodi:type="arc"
         id="path863"
         style="fill:none;fill-opacity:1;stroke:#000000;stroke-width:1.33927107;stroke-miterlimit:4;stroke-dasharray:none;stroke-opacity:1" />
      <path
         d="m -67.367411,707.367 a 13.39266,13.392761 0 0 1 -12.921233,13.38447 13.39266,13.392761 0 0 1 -13.830898,-12.44219 13.39266,13.392761 0 0 1 11.947528,-14.2604 13.39266,13.392761 0 0 1 14.672013,11.43824"
         sodipodi:open="true"
         sodipodi:end="6.1423547"
         sodipodi:start="0"
         sodipodi:ry="13.392761"
         sodipodi:rx="13.39266"
         sodipodi:cy="707.367"
         sodipodi:cx="-80.760071"
         sodipodi:type="arc"
         id="path865"
         style="fill:none;fill-opacity:1;stroke:#000000;stroke-width:1.33927107;stroke-miterlimit:4;stroke-dasharray:none;stroke-opacity:1" />
      <path
         style="fill:none;fill-opacity:1;stroke:#000000;stroke-width:1.33927107;stroke-miterlimit:4;stroke-dasharray:none;stroke-opacity:1"
         id="path867"
         sodipodi:type="arc"
         sodipodi:cx="155.48993"
         sodipodi:cy="707.367"
         sodipodi:rx="13.39266"
         sodipodi:ry="13.392761"
         sodipodi:start="0"
         sodipodi:end="6.1423547"
         sodipodi:open="true"
         d="m 168.88259,707.367 a 13.39266,13.392761 0 0 1 -12.92123,13.38447 13.39266,13.392761 0 0 1 -13.8309,-12.44219 13.39266,13.392761 0 0 1 11.94753,-14.2604 13.39266,13.392761 0 0 1 14.67201,11.43824" />
      <path
         d="m 412.63259,707.367 a 13.39266,13.392761 0 0 1 -12.92123,13.38447 13.39266,13.392761 0 0 1 -13.8309,-12.44219 13.39266,13.392761 0 0 1 11.94753,-14.2604 13.39266,13.392761 0 0 1 14.67201,11.43824"
         sodipodi:open="true"
         sodipodi:end="6.1423547"
         sodipodi:start="0"
         sodipodi:ry="13.392761"
         sodipodi:rx="13.39266"
         sodipodi:cy="707.367"
         sodipodi:cx="399.23993"
         sodipodi:type="arc"
         id="path869"
         style="fill:none;fill-opacity:1;stroke:#000000;stroke-width:1.33927107;stroke-miterlimit:4;stroke-dasharray:none;stroke-opacity:1" />
      <path
         style="fill:none;fill-opacity:1;stroke:#000000;stroke-width:1.33927107;stroke-miterlimit:4;stroke-dasharray:none;stroke-opacity:1"
         id="path871"
         sodipodi:type="arc"
         sodipodi:cx="637.36493"
         sodipodi:cy="707.367"
         sodipodi:rx="13.39266"
         sodipodi:ry="13.392761"
         sodipodi:start="0"
         sodipodi:end="6.1423547"
         sodipodi:open="true"
         d="m 650.75759,707.367 a 13.39266,13.392761 0 0 1 -12.92123,13.38447 13.39266,13.392761 0 0 1 -13.8309,-12.44219 13.39266,13.392761 0 0 1 11.94753,-14.2604 13.39266,13.392761 0 0 1 14.67201,11.43824" />
      <path
         d="M 133.25759,13.61706 A 13.39266,13.392761 0 0 1 120.33636,27.001521 13.39266,13.392761 0 0 1 106.50546,14.559336 13.39266,13.392761 0 0 1 118.45299,0.29893527 13.39266,13.392761 0 0 1 133.125,11.737177"
         sodipodi:open="true"
         sodipodi:end="6.1423547"
         sodipodi:start="0"
         sodipodi:ry="13.392761"
         sodipodi:rx="13.39266"
         sodipodi:cy="13.61706"
         sodipodi:cx="119.86493"
         sodipodi:type="arc"
         id="path873"
         style="fill:none;fill-opacity:1;stroke:#000000;stroke-width:1.33927107;stroke-miterlimit:4;stroke-dasharray:none;stroke-opacity:1" />
      <path
         style="fill:none;fill-opacity:1;stroke:#000000;stroke-width:1.33927107;stroke-miterlimit:4;stroke-dasharray:none;stroke-opacity:1"
         id="path875"
         sodipodi:type="arc"
         sodipodi:cx="119.86493"
         sodipodi:cy="255.49205"
         sodipodi:rx="13.39266"
         sodipodi:ry="13.392761"
         sodipodi:start="0"
         sodipodi:end="6.1423547"
         sodipodi:open="true"
         d="m 133.25759,255.49205 a 13.39266,13.392761 0 0 1 -12.92123,13.38446 13.39266,13.392761 0 0 1 -13.8309,-12.44218 13.39266,13.392761 0 0 1 11.94753,-14.2604 13.39266,13.392761 0 0 1 14.67201,11.43824" />
      <path
         d="m 133.25759,497.36703 a 13.39266,13.392761 0 0 1 -12.92123,13.38447 13.39266,13.392761 0 0 1 -13.8309,-12.44219 13.39266,13.392761 0 0 1 11.94753,-14.2604 13.39266,13.392761 0 0 1 14.67201,11.43824"
         sodipodi:open="true"
         sodipodi:end="6.1423547"
         sodipodi:start="0"
         sodipodi:ry="13.392761"
         sodipodi:rx="13.39266"
         sodipodi:cy="497.36703"
         sodipodi:cx="119.86493"
         sodipodi:type="arc"
         id="path877"
         style="fill:none;fill-opacity:1;stroke:#000000;stroke-width:1.33927107;stroke-miterlimit:4;stroke-dasharray:none;stroke-opacity:1" />
      <path
         style="fill:none;fill-opacity:1;stroke:#000000;stroke-width:1.33927107;stroke-miterlimit:4;stroke-dasharray:none;stroke-opacity:1"
         id="path879"
         sodipodi:type="arc"
         sodipodi:cx="119.86493"
         sodipodi:cy="741.117"
         sodipodi:rx="13.39266"
         sodipodi:ry="13.392761"
         sodipodi:start="0"
         sodipodi:end="6.1423547"
         sodipodi:open="true"
         d="m 133.25759,741.117 a 13.39266,13.392761 0 0 1 -12.92123,13.38447 13.39266,13.392761 0 0 1 -13.8309,-12.44219 13.39266,13.392761 0 0 1 11.94753,-14.2604 13.39266,13.392761 0 0 1 14.67201,11.43824" />
      <path
         style="fill:none;fill-opacity:1;stroke:#000000;stroke-width:1.33927107;stroke-miterlimit:4;stroke-dasharray:none;stroke-opacity:1"
         id="path881"
         sodipodi:type="arc"
         sodipodi:cx="359.86493"
         sodipodi:cy="13.61706"
         sodipodi:rx="13.39266"
         sodipodi:ry="13.392761"
         sodipodi:start="0"
         sodipodi:end="6.1423547"
         sodipodi:open="true"
         d="M 373.25759,13.61706 A 13.39266,13.392761 0 0 1 360.33636,27.001521 13.39266,13.392761 0 0 1 346.50546,14.559336 13.39266,13.392761 0 0 1 358.45299,0.29893527 13.39266,13.392761 0 0 1 373.125,11.737177" />
      <path
         d="m 373.25759,255.49205 a 13.39266,13.392761 0 0 1 -12.92123,13.38446 13.39266,13.392761 0 0 1 -13.8309,-12.44218 13.39266,13.392761 0 0 1 11.94753,-14.2604 13.39266,13.392761 0 0 1 14.67201,11.43824"
         sodipodi:open="true"
         sodipodi:end="6.1423547"
         sodipodi:start="0"
         sodipodi:ry="13.392761"
         sodipodi:rx="13.39266"
         sodipodi:cy="255.49205"
         sodipodi:cx="359.86493"
         sodipodi:type="arc"
         id="path883"
         style="fill:none;fill-opacity:1;stroke:#000000;stroke-width:1.33927107;stroke-miterlimit:4;stroke-dasharray:none;stroke-opacity:1" />
      <path
         style="fill:none;fill-opacity:1;stroke:#000000;stroke-width:1.33927107;stroke-miterlimit:4;stroke-dasharray:none;stroke-opacity:1"
         id="path885"
         sodipodi:type="arc"
         sodipodi:cx="359.86493"
         sodipodi:cy="497.36703"
         sodipodi:rx="13.39266"
         sodipodi:ry="13.392761"
         sodipodi:start="0"
         sodipodi:end="6.1423547"
         sodipodi:open="true"
         d="m 373.25759,497.36703 a 13.39266,13.392761 0 0 1 -12.92123,13.38447 13.39266,13.392761 0 0 1 -13.8309,-12.44219 13.39266,13.392761 0 0 1 11.94753,-14.2604 13.39266,13.392761 0 0 1 14.67201,11.43824" />
      <path
         d="m 373.25759,741.117 a 13.39266,13.392761 0 0 1 -12.92123,13.38447 13.39266,13.392761 0 0 1 -13.8309,-12.44219 13.39266,13.392761 0 0 1 11.94753,-14.2604 13.39266,13.392761 0 0 1 14.67201,11.43824"
         sodipodi:open="true"
         sodipodi:end="6.1423547"
         sodipodi:start="0"
         sodipodi:ry="13.392761"
         sodipodi:rx="13.39266"
         sodipodi:cy="741.117"
         sodipodi:cx="359.86493"
         sodipodi:type="arc"
         id="path887"
         style="fill:none;fill-opacity:1;stroke:#000000;stroke-width:1.33927107;stroke-miterlimit:4;stroke-dasharray:none;stroke-opacity:1" />
      <path
         d="M 615.13259,13.61706 A 13.39266,13.392761 0 0 1 602.21136,27.001521 13.39266,13.392761 0 0 1 588.38046,14.559336 13.39266,13.392761 0 0 1 600.32799,0.29893527 13.39266,13.392761 0 0 1 615,11.737177"
         sodipodi:open="true"
         sodipodi:end="6.1423547"
         sodipodi:start="0"
         sodipodi:ry="13.392761"
         sodipodi:rx="13.39266"
         sodipodi:cy="13.61706"
         sodipodi:cx="601.73993"
         sodipodi:type="arc"
         id="path889"
         style="fill:none;fill-opacity:1;stroke:#000000;stroke-width:1.33927107;stroke-miterlimit:4;stroke-dasharray:none;stroke-opacity:1" />
      <path
         style="fill:none;fill-opacity:1;stroke:#000000;stroke-width:1.33927107;stroke-miterlimit:4;stroke-dasharray:none;stroke-opacity:1"
         id="path891"
         sodipodi:type="arc"
         sodipodi:cx="603.61493"
         sodipodi:cy="255.49205"
         sodipodi:rx="13.39266"
         sodipodi:ry="13.392761"
         sodipodi:start="0"
         sodipodi:end="6.1423547"
         sodipodi:open="true"
         d="m 617.00759,255.49205 a 13.39266,13.392761 0 0 1 -12.92123,13.38446 13.39266,13.392761 0 0 1 -13.8309,-12.44218 13.39266,13.392761 0 0 1 11.94753,-14.2604 13.39266,13.392761 0 0 1 14.67201,11.43824" />
      <path
         d="m 617.00759,497.36703 a 13.39266,13.392761 0 0 1 -12.92123,13.38447 13.39266,13.392761 0 0 1 -13.8309,-12.44219 13.39266,13.392761 0 0 1 11.94753,-14.2604 13.39266,13.392761 0 0 1 14.67201,11.43824"
         sodipodi:open="true"
         sodipodi:end="6.1423547"
         sodipodi:start="0"
         sodipodi:ry="13.392761"
         sodipodi:rx="13.39266"
         sodipodi:cy="497.36703"
         sodipodi:cx="603.61493"
         sodipodi:type="arc"
         id="path893"
         style="fill:none;fill-opacity:1;stroke:#000000;stroke-width:1.33927107;stroke-miterlimit:4;stroke-dasharray:none;stroke-opacity:1" />
      <path
         style="fill:none;fill-opacity:1;stroke:#000000;stroke-width:1.33927107;stroke-miterlimit:4;stroke-dasharray:none;stroke-opacity:1"
         id="path895"
         sodipodi:type="arc"
         sodipodi:cx="603.61493"
         sodipodi:cy="741.117"
         sodipodi:rx="13.39266"
         sodipodi:ry="13.392761"
         sodipodi:start="0"
         sodipodi:end="6.1423547"
         sodipodi:open="true"
         d="m 617.00759,741.117 a 13.39266,13.392761 0 0 1 -12.92123,13.38447 13.39266,13.392761 0 0 1 -13.8309,-12.44219 13.39266,13.392761 0 0 1 11.94753,-14.2604 13.39266,13.392761 0 0 1 14.67201,11.43824" />
      <path
         style="fill:none;fill-opacity:1;stroke:#000000;stroke-width:1.33927107;stroke-miterlimit:4;stroke-dasharray:none;stroke-opacity:1"
         id="path897"
         sodipodi:type="arc"
         sodipodi:cx="841.73993"
         sodipodi:cy="13.61706"
         sodipodi:rx="13.39266"
         sodipodi:ry="13.392761"
         sodipodi:start="0"
         sodipodi:end="6.1423547"
         sodipodi:open="true"
         d="M 855.13259,13.61706 A 13.39266,13.392761 0 0 1 842.21136,27.001521 13.39266,13.392761 0 0 1 828.38046,14.559336 13.39266,13.392761 0 0 1 840.32799,0.29893527 13.39266,13.392761 0 0 1 855,11.737177" />
      <path
         d="m 855.13259,255.49205 a 13.39266,13.392761 0 0 1 -12.92123,13.38446 13.39266,13.392761 0 0 1 -13.8309,-12.44218 13.39266,13.392761 0 0 1 11.94753,-14.2604 A 13.39266,13.392761 0 0 1 855,253.61217"
         sodipodi:open="true"
         sodipodi:end="6.1423547"
         sodipodi:start="0"
         sodipodi:ry="13.392761"
         sodipodi:rx="13.39266"
         sodipodi:cy="255.49205"
         sodipodi:cx="841.73993"
         sodipodi:type="arc"
         id="path899"
         style="fill:none;fill-opacity:1;stroke:#000000;stroke-width:1.33927107;stroke-miterlimit:4;stroke-dasharray:none;stroke-opacity:1" />
      <path
         style="fill:none;fill-opacity:1;stroke:#000000;stroke-width:1.33927107;stroke-miterlimit:4;stroke-dasharray:none;stroke-opacity:1"
         id="path901"
         sodipodi:type="arc"
         sodipodi:cx="841.73993"
         sodipodi:cy="497.36703"
         sodipodi:rx="13.39266"
         sodipodi:ry="13.392761"
         sodipodi:start="0"
         sodipodi:end="6.1423547"
         sodipodi:open="true"
         d="m 855.13259,497.36703 a 13.39266,13.392761 0 0 1 -12.92123,13.38447 13.39266,13.392761 0 0 1 -13.8309,-12.44219 13.39266,13.392761 0 0 1 11.94753,-14.2604 A 13.39266,13.392761 0 0 1 855,495.48715" />
      <path
         d="m 855.13259,741.117 a 13.39266,13.392761 0 0 1 -12.92123,13.38447 13.39266,13.392761 0 0 1 -13.8309,-12.44219 13.39266,13.392761 0 0 1 11.94753,-14.2604 A 13.39266,13.392761 0 0 1 855,739.23712"
         sodipodi:open="true"
         sodipodi:end="6.1423547"
         sodipodi:start="0"
         sodipodi:ry="13.392761"
         sodipodi:rx="13.39266"
         sodipodi:cy="741.117"
         sodipodi:cx="841.73993"
         sodipodi:type="arc"
         id="path903"
         style="fill:none;fill-opacity:1;stroke:#000000;stroke-width:1.33927107;stroke-miterlimit:4;stroke-dasharray:none;stroke-opacity:1" />
      <path
         d="m 97.632589,216.11705 a 13.39266,13.392761 0 0 1 -12.921233,13.38446 13.39266,13.392761 0 0 1 -13.830898,-12.44218 13.39266,13.392761 0 0 1 11.947528,-14.2604 13.39266,13.392761 0 0 1 14.672013,11.43824"
         sodipodi:open="true"
         sodipodi:end="6.1423547"
         sodipodi:start="0"
         sodipodi:ry="13.392761"
         sodipodi:rx="13.39266"
         sodipodi:cy="216.11705"
         sodipodi:cx="84.239929"
         sodipodi:type="arc"
         id="path905"
         style="fill:none;fill-opacity:1;stroke:#000000;stroke-width:1.33927107;stroke-miterlimit:4;stroke-dasharray:none;stroke-opacity:1" />
      <path
         style="fill:none;fill-opacity:1;stroke:#000000;stroke-width:1.33927107;stroke-miterlimit:4;stroke-dasharray:none;stroke-opacity:1"
         id="path907"
         sodipodi:type="arc"
         sodipodi:cx="84.239929"
         sodipodi:cy="457.99203"
         sodipodi:rx="13.39266"
         sodipodi:ry="13.392761"
         sodipodi:start="0"
         sodipodi:end="6.1423547"
         sodipodi:open="true"
         d="M 97.632589,457.99203 A 13.39266,13.392761 0 0 1 84.711356,471.3765 13.39266,13.392761 0 0 1 70.880458,458.93431 13.39266,13.392761 0 0 1 82.827986,444.67391 13.39266,13.392761 0 0 1 97.499999,456.11215" />
      <path
         d="m 97.632589,699.867 a 13.39266,13.392761 0 0 1 -12.921233,13.38447 13.39266,13.392761 0 0 1 -13.830898,-12.44219 13.39266,13.392761 0 0 1 11.947528,-14.2604 13.39266,13.392761 0 0 1 14.672013,11.43824"
         sodipodi:open="true"
         sodipodi:end="6.1423547"
         sodipodi:start="0"
         sodipodi:ry="13.392761"
         sodipodi:rx="13.39266"
         sodipodi:cy="699.867"
         sodipodi:cx="84.239929"
         sodipodi:type="arc"
         id="path909"
         style="fill:none;fill-opacity:1;stroke:#000000;stroke-width:1.33927107;stroke-miterlimit:4;stroke-dasharray:none;stroke-opacity:1" />
      <path
         style="fill:none;fill-opacity:1;stroke:#000000;stroke-width:1.33927107;stroke-miterlimit:4;stroke-dasharray:none;stroke-opacity:1"
         id="path911"
         sodipodi:type="arc"
         sodipodi:cx="84.239929"
         sodipodi:cy="943.617"
         sodipodi:rx="13.39266"
         sodipodi:ry="13.392761"
         sodipodi:start="0"
         sodipodi:end="6.1423547"
         sodipodi:open="true"
         d="m 97.632589,943.617 a 13.39266,13.392761 0 0 1 -12.921233,13.38447 13.39266,13.392761 0 0 1 -13.830898,-12.44219 13.39266,13.392761 0 0 1 11.947528,-14.2604 13.39266,13.392761 0 0 1 14.672013,11.43824" />
      <path
         style="fill:none;fill-opacity:1;stroke:#000000;stroke-width:1.33927107;stroke-miterlimit:4;stroke-dasharray:none;stroke-opacity:1"
         id="path913"
         sodipodi:type="arc"
         sodipodi:cx="324.23993"
         sodipodi:cy="217.99205"
         sodipodi:rx="13.39266"
         sodipodi:ry="13.392761"
         sodipodi:start="0"
         sodipodi:end="6.1423547"
         sodipodi:open="true"
         d="m 337.63259,217.99205 a 13.39266,13.392761 0 0 1 -12.92123,13.38446 13.39266,13.392761 0 0 1 -13.8309,-12.44218 13.39266,13.392761 0 0 1 11.94753,-14.2604 13.39266,13.392761 0 0 1 14.67201,11.43824" />
      <path
         d="m 337.63259,459.86703 a 13.39266,13.392761 0 0 1 -12.92123,13.38447 13.39266,13.392761 0 0 1 -13.8309,-12.44219 13.39266,13.392761 0 0 1 11.94753,-14.2604 13.39266,13.392761 0 0 1 14.67201,11.43824"
         sodipodi:open="true"
         sodipodi:end="6.1423547"
         sodipodi:start="0"
         sodipodi:ry="13.392761"
         sodipodi:rx="13.39266"
         sodipodi:cy="459.86703"
         sodipodi:cx="324.23993"
         sodipodi:type="arc"
         id="path915"
         style="fill:none;fill-opacity:1;stroke:#000000;stroke-width:1.33927107;stroke-miterlimit:4;stroke-dasharray:none;stroke-opacity:1" />
      <path
         style="fill:none;fill-opacity:1;stroke:#000000;stroke-width:1.33927107;stroke-miterlimit:4;stroke-dasharray:none;stroke-opacity:1"
         id="path917"
         sodipodi:type="arc"
         sodipodi:cx="324.23993"
         sodipodi:cy="701.742"
         sodipodi:rx="13.39266"
         sodipodi:ry="13.392761"
         sodipodi:start="0"
         sodipodi:end="6.1423547"
         sodipodi:open="true"
         d="m 337.63259,701.742 a 13.39266,13.392761 0 0 1 -12.92123,13.38447 13.39266,13.392761 0 0 1 -13.8309,-12.44219 13.39266,13.392761 0 0 1 11.94753,-14.2604 13.39266,13.392761 0 0 1 14.67201,11.43824" />
      <path
         d="m 337.63259,943.617 a 13.39266,13.392761 0 0 1 -12.92123,13.38447 13.39266,13.392761 0 0 1 -13.8309,-12.44219 13.39266,13.392761 0 0 1 11.94753,-14.2604 13.39266,13.392761 0 0 1 14.67201,11.43824"
         sodipodi:open="true"
         sodipodi:end="6.1423547"
         sodipodi:start="0"
         sodipodi:ry="13.392761"
         sodipodi:rx="13.39266"
         sodipodi:cy="943.617"
         sodipodi:cx="324.23993"
         sodipodi:type="arc"
         id="path919"
         style="fill:none;fill-opacity:1;stroke:#000000;stroke-width:1.33927107;stroke-miterlimit:4;stroke-dasharray:none;stroke-opacity:1" />
      <path
         d="m 577.63259,216.11705 a 13.39266,13.392761 0 0 1 -12.92123,13.38446 13.39266,13.392761 0 0 1 -13.8309,-12.44218 13.39266,13.392761 0 0 1 11.94753,-14.2604 13.39266,13.392761 0 0 1 14.67201,11.43824"
         sodipodi:open="true"
         sodipodi:end="6.1423547"
         sodipodi:start="0"
         sodipodi:ry="13.392761"
         sodipodi:rx="13.39266"
         sodipodi:cy="216.11705"
         sodipodi:cx="564.23993"
         sodipodi:type="arc"
         id="path921"
         style="fill:none;fill-opacity:1;stroke:#000000;stroke-width:1.33927107;stroke-miterlimit:4;stroke-dasharray:none;stroke-opacity:1" />
      <path
         style="fill:none;fill-opacity:1;stroke:#000000;stroke-width:1.33927107;stroke-miterlimit:4;stroke-dasharray:none;stroke-opacity:1"
         id="path923"
         sodipodi:type="arc"
         sodipodi:cx="564.23993"
         sodipodi:cy="457.99203"
         sodipodi:rx="13.39266"
         sodipodi:ry="13.392761"
         sodipodi:start="0"
         sodipodi:end="6.1423547"
         sodipodi:open="true"
         d="m 577.63259,457.99203 a 13.39266,13.392761 0 0 1 -12.92123,13.38447 13.39266,13.392761 0 0 1 -13.8309,-12.44219 13.39266,13.392761 0 0 1 11.94753,-14.2604 13.39266,13.392761 0 0 1 14.67201,11.43824" />
      <path
         d="m 577.63259,699.867 a 13.39266,13.392761 0 0 1 -12.92123,13.38447 13.39266,13.392761 0 0 1 -13.8309,-12.44219 13.39266,13.392761 0 0 1 11.94753,-14.2604 13.39266,13.392761 0 0 1 14.67201,11.43824"
         sodipodi:open="true"
         sodipodi:end="6.1423547"
         sodipodi:start="0"
         sodipodi:ry="13.392761"
         sodipodi:rx="13.39266"
         sodipodi:cy="699.867"
         sodipodi:cx="564.23993"
         sodipodi:type="arc"
         id="path925"
         style="fill:none;fill-opacity:1;stroke:#000000;stroke-width:1.33927107;stroke-miterlimit:4;stroke-dasharray:none;stroke-opacity:1" />
      <path
         style="fill:none;fill-opacity:1;stroke:#000000;stroke-width:1.33927107;stroke-miterlimit:4;stroke-dasharray:none;stroke-opacity:1"
         id="path927"
         sodipodi:type="arc"
         sodipodi:cx="564.23993"
         sodipodi:cy="943.617"
         sodipodi:rx="13.39266"
         sodipodi:ry="13.392761"
         sodipodi:start="0"
         sodipodi:end="6.1423547"
         sodipodi:open="true"
         d="m 577.63259,943.617 a 13.39266,13.392761 0 0 1 -12.92123,13.38447 13.39266,13.392761 0 0 1 -13.8309,-12.44219 13.39266,13.392761 0 0 1 11.94753,-14.2604 13.39266,13.392761 0 0 1 14.67201,11.43824" />
      <path
         style="fill:none;fill-opacity:1;stroke:#000000;stroke-width:1.33927107;stroke-miterlimit:4;stroke-dasharray:none;stroke-opacity:1"
         id="path929"
         sodipodi:type="arc"
         sodipodi:cx="807.98993"
         sodipodi:cy="216.11705"
         sodipodi:rx="13.39266"
         sodipodi:ry="13.392761"
         sodipodi:start="0"
         sodipodi:end="6.1423547"
         sodipodi:open="true"
         d="m 821.38259,216.11705 a 13.39266,13.392761 0 0 1 -12.92123,13.38446 13.39266,13.392761 0 0 1 -13.8309,-12.44218 13.39266,13.392761 0 0 1 11.94753,-14.2604 13.39266,13.392761 0 0 1 14.67201,11.43824" />
      <path
         d="m 821.38259,457.99203 a 13.39266,13.392761 0 0 1 -12.92123,13.38447 13.39266,13.392761 0 0 1 -13.8309,-12.44219 13.39266,13.392761 0 0 1 11.94753,-14.2604 13.39266,13.392761 0 0 1 14.67201,11.43824"
         sodipodi:open="true"
         sodipodi:end="6.1423547"
         sodipodi:start="0"
         sodipodi:ry="13.392761"
         sodipodi:rx="13.39266"
         sodipodi:cy="457.99203"
         sodipodi:cx="807.98993"
         sodipodi:type="arc"
         id="path931"
         style="fill:none;fill-opacity:1;stroke:#000000;stroke-width:1.33927107;stroke-miterlimit:4;stroke-dasharray:none;stroke-opacity:1" />
      <path
         style="fill:none;fill-opacity:1;stroke:#000000;stroke-width:1.33927107;stroke-miterlimit:4;stroke-dasharray:none;stroke-opacity:1"
         id="path933"
         sodipodi:type="arc"
         sodipodi:cx="807.98993"
         sodipodi:cy="699.867"
         sodipodi:rx="13.39266"
         sodipodi:ry="13.392761"
         sodipodi:start="0"
         sodipodi:end="6.1423547"
         sodipodi:open="true"
         d="m 821.38259,699.867 a 13.39266,13.392761 0 0 1 -12.92123,13.38447 13.39266,13.392761 0 0 1 -13.8309,-12.44219 13.39266,13.392761 0 0 1 11.94753,-14.2604 13.39266,13.392761 0 0 1 14.67201,11.43824" />
      <path
         d="m 821.38259,943.617 a 13.39266,13.392761 0 0 1 -12.92123,13.38447 13.39266,13.392761 0 0 1 -13.8309,-12.44219 13.39266,13.392761 0 0 1 11.94753,-14.2604 13.39266,13.392761 0 0 1 14.67201,11.43824"
         sodipodi:open="true"
         sodipodi:end="6.1423547"
         sodipodi:start="0"
         sodipodi:ry="13.392761"
         sodipodi:rx="13.39266"
         sodipodi:cy="943.617"
         sodipodi:cx="807.98993"
         sodipodi:type="arc"
         id="path935"
         style="fill:none;fill-opacity:1;stroke:#000000;stroke-width:1.33927107;stroke-miterlimit:4;stroke-dasharray:none;stroke-opacity:1" />
      <path
         d="m -102.99241,180.49205 a 13.39266,13.392761 0 0 1 -12.92123,13.38446 13.39266,13.392761 0 0 1 -13.8309,-12.44218 13.39266,13.392761 0 0 1 11.94753,-14.2604 13.39266,13.392761 0 0 1 14.67201,11.43824"
         sodipodi:open="true"
         sodipodi:end="6.1423547"
         sodipodi:start="0"
         sodipodi:ry="13.392761"
         sodipodi:rx="13.39266"
         sodipodi:cy="180.49205"
         sodipodi:cx="-116.38507"
         sodipodi:type="arc"
         id="path937"
         style="fill:none;fill-opacity:1;stroke:#000000;stroke-width:1.33927107;stroke-miterlimit:4;stroke-dasharray:none;stroke-opacity:1" />
      <path
         style="fill:none;fill-opacity:1;stroke:#000000;stroke-width:1.33927107;stroke-miterlimit:4;stroke-dasharray:none;stroke-opacity:1"
         id="path939"
         sodipodi:type="arc"
         sodipodi:cx="-116.38507"
         sodipodi:cy="422.36703"
         sodipodi:rx="13.39266"
         sodipodi:ry="13.392761"
         sodipodi:start="0"
         sodipodi:end="6.1423547"
         sodipodi:open="true"
         d="m -102.99241,422.36703 a 13.39266,13.392761 0 0 1 -12.92123,13.38447 13.39266,13.392761 0 0 1 -13.8309,-12.44219 13.39266,13.392761 0 0 1 11.94753,-14.2604 13.39266,13.392761 0 0 1 14.67201,11.43824" />
      <path
         d="m -102.99241,664.242 a 13.39266,13.392761 0 0 1 -12.92123,13.38447 13.39266,13.392761 0 0 1 -13.8309,-12.44219 13.39266,13.392761 0 0 1 11.94753,-14.2604 13.39266,13.392761 0 0 1 14.67201,11.43824"
         sodipodi:open="true"
         sodipodi:end="6.1423547"
         sodipodi:start="0"
         sodipodi:ry="13.392761"
         sodipodi:rx="13.39266"
         sodipodi:cy="664.242"
         sodipodi:cx="-116.38507"
         sodipodi:type="arc"
         id="path941"
         style="fill:none;fill-opacity:1;stroke:#000000;stroke-width:1.33927107;stroke-miterlimit:4;stroke-dasharray:none;stroke-opacity:1" />
      <path
         style="fill:none;fill-opacity:1;stroke:#000000;stroke-width:1.33927107;stroke-miterlimit:4;stroke-dasharray:none;stroke-opacity:1"
         id="path943"
         sodipodi:type="arc"
         sodipodi:cx="-116.38507"
         sodipodi:cy="907.992"
         sodipodi:rx="13.39266"
         sodipodi:ry="13.392761"
         sodipodi:start="0"
         sodipodi:end="6.1423547"
         sodipodi:open="true"
         d="m -102.99241,907.992 a 13.39266,13.392761 0 0 1 -12.92123,13.38447 13.39266,13.392761 0 0 1 -13.8309,-12.44219 13.39266,13.392761 0 0 1 11.94753,-14.2604 13.39266,13.392761 0 0 1 14.67201,11.43824" />
      <path
         style="fill:none;fill-opacity:1;stroke:#000000;stroke-width:1.33927107;stroke-miterlimit:4;stroke-dasharray:none;stroke-opacity:1"
         id="path945"
         sodipodi:type="arc"
         sodipodi:cx="121.73993"
         sodipodi:cy="180.49205"
         sodipodi:rx="13.39266"
         sodipodi:ry="13.392761"
         sodipodi:start="0"
         sodipodi:end="6.1423547"
         sodipodi:open="true"
         d="m 135.13259,180.49205 a 13.39266,13.392761 0 0 1 -12.92123,13.38446 13.39266,13.392761 0 0 1 -13.8309,-12.44218 13.39266,13.392761 0 0 1 11.94753,-14.2604 A 13.39266,13.392761 0 0 1 135,178.61217" />
      <path
         d="m 135.13259,422.36703 a 13.39266,13.392761 0 0 1 -12.92123,13.38447 13.39266,13.392761 0 0 1 -13.8309,-12.44219 13.39266,13.392761 0 0 1 11.94753,-14.2604 A 13.39266,13.392761 0 0 1 135,420.48715"
         sodipodi:open="true"
         sodipodi:end="6.1423547"
         sodipodi:start="0"
         sodipodi:ry="13.392761"
         sodipodi:rx="13.39266"
         sodipodi:cy="422.36703"
         sodipodi:cx="121.73993"
         sodipodi:type="arc"
         id="path947"
         style="fill:none;fill-opacity:1;stroke:#000000;stroke-width:1.33927107;stroke-miterlimit:4;stroke-dasharray:none;stroke-opacity:1" />
      <path
         style="fill:none;fill-opacity:1;stroke:#000000;stroke-width:1.33927107;stroke-miterlimit:4;stroke-dasharray:none;stroke-opacity:1"
         id="path949"
         sodipodi:type="arc"
         sodipodi:cx="121.73993"
         sodipodi:cy="664.242"
         sodipodi:rx="13.39266"
         sodipodi:ry="13.392761"
         sodipodi:start="0"
         sodipodi:end="6.1423547"
         sodipodi:open="true"
         d="m 135.13259,664.242 a 13.39266,13.392761 0 0 1 -12.92123,13.38447 13.39266,13.392761 0 0 1 -13.8309,-12.44219 13.39266,13.392761 0 0 1 11.94753,-14.2604 A 13.39266,13.392761 0 0 1 135,662.36212" />
      <path
         d="m 135.13259,907.992 a 13.39266,13.392761 0 0 1 -12.92123,13.38447 13.39266,13.392761 0 0 1 -13.8309,-12.44219 13.39266,13.392761 0 0 1 11.94753,-14.2604 A 13.39266,13.392761 0 0 1 135,906.11212"
         sodipodi:open="true"
         sodipodi:end="6.1423547"
         sodipodi:start="0"
         sodipodi:ry="13.392761"
         sodipodi:rx="13.39266"
         sodipodi:cy="907.992"
         sodipodi:cx="121.73993"
         sodipodi:type="arc"
         id="path951"
         style="fill:none;fill-opacity:1;stroke:#000000;stroke-width:1.33927107;stroke-miterlimit:4;stroke-dasharray:none;stroke-opacity:1" />
      <path
         d="m 377.00759,180.49205 a 13.39266,13.392761 0 0 1 -12.92123,13.38446 13.39266,13.392761 0 0 1 -13.8309,-12.44218 13.39266,13.392761 0 0 1 11.94753,-14.2604 13.39266,13.392761 0 0 1 14.67201,11.43824"
         sodipodi:open="true"
         sodipodi:end="6.1423547"
         sodipodi:start="0"
         sodipodi:ry="13.392761"
         sodipodi:rx="13.39266"
         sodipodi:cy="180.49205"
         sodipodi:cx="363.61493"
         sodipodi:type="arc"
         id="path953"
         style="fill:none;fill-opacity:1;stroke:#000000;stroke-width:1.33927107;stroke-miterlimit:4;stroke-dasharray:none;stroke-opacity:1" />
      <path
         style="fill:none;fill-opacity:1;stroke:#000000;stroke-width:1.33927107;stroke-miterlimit:4;stroke-dasharray:none;stroke-opacity:1"
         id="path955"
         sodipodi:type="arc"
         sodipodi:cx="363.61493"
         sodipodi:cy="422.36703"
         sodipodi:rx="13.39266"
         sodipodi:ry="13.392761"
         sodipodi:start="0"
         sodipodi:end="6.1423547"
         sodipodi:open="true"
         d="m 377.00759,422.36703 a 13.39266,13.392761 0 0 1 -12.92123,13.38447 13.39266,13.392761 0 0 1 -13.8309,-12.44219 13.39266,13.392761 0 0 1 11.94753,-14.2604 13.39266,13.392761 0 0 1 14.67201,11.43824" />
      <path
         d="m 377.00759,664.242 a 13.39266,13.392761 0 0 1 -12.92123,13.38447 13.39266,13.392761 0 0 1 -13.8309,-12.44219 13.39266,13.392761 0 0 1 11.94753,-14.2604 13.39266,13.392761 0 0 1 14.67201,11.43824"
         sodipodi:open="true"
         sodipodi:end="6.1423547"
         sodipodi:start="0"
         sodipodi:ry="13.392761"
         sodipodi:rx="13.39266"
         sodipodi:cy="664.242"
         sodipodi:cx="363.61493"
         sodipodi:type="arc"
         id="path957"
         style="fill:none;fill-opacity:1;stroke:#000000;stroke-width:1.33927107;stroke-miterlimit:4;stroke-dasharray:none;stroke-opacity:1" />
      <path
         style="fill:none;fill-opacity:1;stroke:#000000;stroke-width:1.33927107;stroke-miterlimit:4;stroke-dasharray:none;stroke-opacity:1"
         id="path959"
         sodipodi:type="arc"
         sodipodi:cx="363.61493"
         sodipodi:cy="907.992"
         sodipodi:rx="13.39266"
         sodipodi:ry="13.392761"
         sodipodi:start="0"
         sodipodi:end="6.1423547"
         sodipodi:open="true"
         d="m 377.00759,907.992 a 13.39266,13.392761 0 0 1 -12.92123,13.38447 13.39266,13.392761 0 0 1 -13.8309,-12.44219 13.39266,13.392761 0 0 1 11.94753,-14.2604 13.39266,13.392761 0 0 1 14.67201,11.43824" />
      <path
         style="fill:none;fill-opacity:1;stroke:#000000;stroke-width:1.33927107;stroke-miterlimit:4;stroke-dasharray:none;stroke-opacity:1"
         id="path961"
         sodipodi:type="arc"
         sodipodi:cx="603.61493"
         sodipodi:cy="180.49205"
         sodipodi:rx="13.39266"
         sodipodi:ry="13.392761"
         sodipodi:start="0"
         sodipodi:end="6.1423547"
         sodipodi:open="true"
         d="m 617.00759,180.49205 a 13.39266,13.392761 0 0 1 -12.92123,13.38446 13.39266,13.392761 0 0 1 -13.8309,-12.44218 13.39266,13.392761 0 0 1 11.94753,-14.2604 13.39266,13.392761 0 0 1 14.67201,11.43824" />
      <path
         d="m 617.00759,422.36703 a 13.39266,13.392761 0 0 1 -12.92123,13.38447 13.39266,13.392761 0 0 1 -13.8309,-12.44219 13.39266,13.392761 0 0 1 11.94753,-14.2604 13.39266,13.392761 0 0 1 14.67201,11.43824"
         sodipodi:open="true"
         sodipodi:end="6.1423547"
         sodipodi:start="0"
         sodipodi:ry="13.392761"
         sodipodi:rx="13.39266"
         sodipodi:cy="422.36703"
         sodipodi:cx="603.61493"
         sodipodi:type="arc"
         id="path963"
         style="fill:none;fill-opacity:1;stroke:#000000;stroke-width:1.33927107;stroke-miterlimit:4;stroke-dasharray:none;stroke-opacity:1" />
      <path
         style="fill:none;fill-opacity:1;stroke:#000000;stroke-width:1.33927107;stroke-miterlimit:4;stroke-dasharray:none;stroke-opacity:1"
         id="path965"
         sodipodi:type="arc"
         sodipodi:cx="603.61493"
         sodipodi:cy="664.242"
         sodipodi:rx="13.39266"
         sodipodi:ry="13.392761"
         sodipodi:start="0"
         sodipodi:end="6.1423547"
         sodipodi:open="true"
         d="m 617.00759,664.242 a 13.39266,13.392761 0 0 1 -12.92123,13.38447 13.39266,13.392761 0 0 1 -13.8309,-12.44219 13.39266,13.392761 0 0 1 11.94753,-14.2604 13.39266,13.392761 0 0 1 14.67201,11.43824" />
      <path
         d="m 617.00759,907.992 a 13.39266,13.392761 0 0 1 -12.92123,13.38447 13.39266,13.392761 0 0 1 -13.8309,-12.44219 13.39266,13.392761 0 0 1 11.94753,-14.2604 13.39266,13.392761 0 0 1 14.67201,11.43824"
         sodipodi:open="true"
         sodipodi:end="6.1423547"
         sodipodi:start="0"
         sodipodi:ry="13.392761"
         sodipodi:rx="13.39266"
         sodipodi:cy="907.992"
         sodipodi:cx="603.61493"
         sodipodi:type="arc"
         id="path967"
         style="fill:none;fill-opacity:1;stroke:#000000;stroke-width:1.33927107;stroke-miterlimit:4;stroke-dasharray:none;stroke-opacity:1" />
    </g>
  </g>
</svg>
